<?xml version="1.0" standalone="no"?>
<!DOCTYPE svg PUBLIC "-//W3C//DTD SVG 20010904//EN"
 "http://www.w3.org/TR/2001/REC-SVG-20010904/DTD/svg10.dtd">
<svg version="1.0" xmlns="http://www.w3.org/2000/svg"
 width="373.000000pt" height="373.000000pt" viewBox="0 0 373.000000 373.000000"
 preserveAspectRatio="xMidYMid meet">
<metadata>
Created by potrace 1.14, written by Peter Selinger 2001-2017
</metadata>
<g transform="translate(0.000000,373.000000) scale(0.100000,-0.100000)"
fill="#000000" stroke="none">
<path d="M318 2963 c-2 -5 -4 -408 -3 -898 l1 -890 149 -3 150 -2 0 897 0 898
-147 3 c-80 1 -148 -1 -150 -5z"/>
<path d="M1320 2352 c0 -523 -2 -613 -14 -597 -7 11 -30 52 -51 90 -21 39 -58
103 -82 143 -24 41 -43 75 -43 77 0 2 -18 33 -40 69 -22 36 -40 68 -40 71 0 2
-13 26 -29 52 -16 27 -44 75 -63 109 -95 173 -234 414 -238 414 -3 0 -5 -125
-4 -277 l1 -278 163 -285 c90 -157 225 -393 301 -525 l137 -240 150 -3 150 -3
0 901 0 900 -149 -1 -149 0 0 -617z"/>
<path d="M2063 2060 l0 -901 150 3 149 3 75 130 c41 72 91 159 111 195 19 36
43 77 54 92 10 14 18 29 18 32 0 4 84 154 155 276 8 14 54 95 102 180 l88 154
0 277 c0 271 0 277 -18 251 -10 -15 -145 -251 -300 -525 l-282 -498 -3 615 -2
616 -149 0 -148 0 0 -900z"/>
<path d="M3069 2953 c-1 -5 -2 -410 -3 -900 l-1 -893 146 0 c109 0 148 3 151
13 2 6 4 410 3 897 l0 885 -148 3 c-81 1 -148 -1 -148 -5z"/>
<path d="M320 1015 c0 -13 70 -396 76 -417 3 -9 15 -20 26 -24 27 -8 47 15
129 154 33 57 64 101 67 97 4 -4 41 -61 82 -128 79 -127 107 -150 129 -109 10
18 81 392 81 424 0 9 -12 14 -36 15 -43 1 -45 -4 -69 -152 -10 -61 -21 -116
-25 -123 -4 -9 -23 13 -55 65 -26 43 -59 92 -71 110 -40 53 -53 41 -169 -145
-14 -24 -28 -42 -30 -40 -4 4 -5 11 -30 148 -23 132 -26 139 -70 137 -19 -1
-35 -6 -35 -12z"/>
<path d="M1720 1010 c-13 -13 -16 -44 -15 -185 2 -244 2 -245 248 -248 l155
-2 4 38 c2 21 2 40 -1 43 -2 2 -73 4 -158 4 -143 0 -154 1 -161 19 -6 16 -7
166 -3 251 1 14 24 16 161 15 l160 -1 0 42 0 41 -187 -1 c-156 0 -190 -3 -203
-16z"/>
<path d="M2932 1014 c-15 -11 -17 -34 -18 -208 -1 -140 2 -201 11 -213 11 -14
35 -16 184 -16 185 1 221 8 240 49 24 53 5 149 -36 179 -12 9 -12 16 0 50 24
70 10 132 -36 157 -31 18 -321 20 -345 2z m307 -83 c11 -17 -4 -60 -26 -76 -9
-7 -50 -12 -94 -12 -42 -1 -81 -3 -86 -6 -5 -3 -7 -22 -5 -41 l4 -36 104 0
c117 0 144 -13 144 -70 l0 -31 -142 3 -143 3 0 130 c-1 72 0 135 2 140 2 6 49
10 119 10 88 0 117 -3 123 -14z"/>
<path d="M1888 842 l-68 -3 0 -39 0 -40 125 0 c69 0 125 3 126 8 7 59 6 72 -4
73 -63 3 -123 4 -179 1z"/>
</g>
</svg>
