<?xml version="1.0" standalone="no"?>
<!DOCTYPE svg PUBLIC "-//W3C//DTD SVG 20010904//EN"
 "http://www.w3.org/TR/2001/REC-SVG-20010904/DTD/svg10.dtd">
<svg version="1.0" xmlns="http://www.w3.org/2000/svg"
 width="512.000000pt" height="512.000000pt" viewBox="0 0 512.000000 512.000000"
 preserveAspectRatio="xMidYMid meet">
<metadata>
Created by potrace 1.14, written by Peter Selinger 2001-2017
</metadata>
<g transform="translate(0.000000,512.000000) scale(0.100000,-0.100000)"
fill="#000000" stroke="none">
<path d="M2517 4994 c-1 -1 -60 -5 -132 -8 -71 -4 -143 -9 -160 -10 -16 -2
-59 -6 -95 -10 -36 -3 -75 -8 -85 -10 -11 -2 -51 -7 -90 -10 -38 -4 -79 -9
-90 -11 -28 -7 -75 -15 -110 -20 -17 -2 -64 -12 -105 -20 -41 -9 -86 -19 -100
-21 -57 -11 -221 -57 -310 -86 -52 -18 -97 -33 -100 -33 -3 0 -16 -7 -30 -15
-14 -7 -26 -13 -27 -12 -10 6 -276 -125 -349 -171 -216 -137 -390 -319 -491
-512 -32 -62 -78 -184 -88 -233 -3 -15 -8 -36 -10 -47 -19 -87 -23 -137 -20
-250 3 -126 5 -146 26 -230 21 -81 103 -265 128 -285 3 -3 21 -24 39 -47 l33
-43 -70 -142 c-140 -288 -195 -524 -131 -558 54 -29 90 4 101 93 13 104 63
245 154 433 l40 83 60 -41 c143 -96 319 -160 515 -185 72 -9 259 -10 335 -1
140 17 303 81 414 163 60 44 171 153 171 167 0 26 44 -11 210 -177 l185 -185
-862 -863 c-926 -926 -890 -886 -878 -976 5 -41 45 -95 86 -115 44 -22 107
-20 147 4 18 11 416 404 883 872 l850 852 218 -218 218 -219 -47 -141 c-26
-77 -62 -202 -80 -276 -26 -108 -65 -260 -104 -400 -5 -19 -69 -173 -90 -220
-52 -111 -186 -330 -207 -338 -5 -2 -9 -8 -9 -14 0 -9 -42 -63 -110 -142 -14
-15 -54 -58 -88 -94 -57 -59 -63 -69 -58 -96 11 -57 18 -58 276 -51 129 3 258
8 285 10 121 9 205 16 231 20 16 2 56 6 89 10 33 3 74 8 90 11 17 2 44 6 60 8
159 21 356 63 524 111 470 134 808 342 1020 626 34 45 61 88 61 96 0 7 4 13 8
13 14 0 79 150 106 243 36 125 41 164 40 327 0 118 -5 161 -23 230 -30 110
-88 232 -151 315 l-50 66 65 132 c99 204 150 355 162 479 4 48 2 59 -17 78
-47 47 -105 4 -113 -85 -5 -52 -30 -155 -47 -190 -5 -11 -25 -60 -45 -109 -46
-113 -94 -206 -107 -206 -10 0 -69 38 -78 51 -13 17 -204 101 -280 123 -137
39 -215 49 -375 50 -134 1 -208 -7 -300 -33 -177 -50 -328 -147 -441 -284
l-30 -36 -189 189 -188 189 859 860 c517 519 864 874 873 894 27 65 1 143 -63
191 -31 24 -117 31 -150 13 -12 -7 -409 -399 -884 -872 l-862 -860 -221 221
-220 221 16 39 c18 42 64 170 70 194 2 8 15 62 30 120 15 58 28 112 30 120 85
438 283 827 575 1129 80 83 94 117 60 151 -21 21 -28 21 -201 18 -100 -2 -181
-4 -182 -4z"/>
</g>
</svg>
